<?xml version="1.0" encoding="utf-8" standalone="no"?>
<!DOCTYPE svg PUBLIC "-//W3C//DTD SVG 1.1//EN"
  "http://www.w3.org/Graphics/SVG/1.1/DTD/svg11.dtd">
<svg xmlns:xlink="http://www.w3.org/1999/xlink" width="576pt" height="288pt" viewBox="0 0 576 288" xmlns="http://www.w3.org/2000/svg" version="1.1">
 <metadata>
  <rdf:RDF xmlns:dc="http://purl.org/dc/elements/1.1/" xmlns:cc="http://creativecommons.org/ns#" xmlns:rdf="http://www.w3.org/1999/02/22-rdf-syntax-ns#">
   <cc:Work>
    <dc:type rdf:resource="http://purl.org/dc/dcmitype/StillImage"/>
    <dc:date>2025-04-03T14:42:21.172370</dc:date>
    <dc:format>image/svg+xml</dc:format>
    <dc:creator>
     <cc:Agent>
      <dc:title>Matplotlib v3.8.4, https://matplotlib.org/</dc:title>
     </cc:Agent>
    </dc:creator>
   </cc:Work>
  </rdf:RDF>
 </metadata>
 <defs>
  <style type="text/css">*{stroke-linejoin: round; stroke-linecap: butt}</style>
 </defs>
 <g id="figure_1">
  <g id="patch_1">
   <path d="M 0 288 
L 576 288 
L 576 0 
L 0 0 
z
" style="fill: #ffffff"/>
  </g>
  <g id="axes_1">
   <g id="patch_2">
    <path d="M 72 256.32 
L 518.4 256.32 
L 518.4 34.56 
L 72 34.56 
z
" style="fill: #ffffff"/>
   </g>
   <g id="patch_3">
    <path d="M 92.290909 256.32 
L 100.407273 256.32 
L 100.407273 253.827965 
L 92.290909 253.827965 
z
" clip-path="url(#pe05ce792cc)" style="fill: #1f77b4; fill-opacity: 0.5; stroke: #000000; stroke-width: 0.811636; stroke-linejoin: miter"/>
   </g>
   <g id="patch_4">
    <path d="M 100.407273 256.32 
L 108.523636 256.32 
L 108.523636 247.909381 
L 100.407273 247.909381 
z
" clip-path="url(#pe05ce792cc)" style="fill: #1f77b4; fill-opacity: 0.5; stroke: #000000; stroke-width: 0.811636; stroke-linejoin: miter"/>
   </g>
   <g id="patch_5">
    <path d="M 108.523636 256.32 
L 116.64 256.32 
L 116.64 246.040354 
L 108.523636 246.040354 
z
" clip-path="url(#pe05ce792cc)" style="fill: #1f77b4; fill-opacity: 0.5; stroke: #000000; stroke-width: 0.811636; stroke-linejoin: miter"/>
   </g>
   <g id="patch_6">
    <path d="M 116.64 256.32 
L 124.756364 256.32 
L 124.756364 243.859823 
L 116.64 243.859823 
z
" clip-path="url(#pe05ce792cc)" style="fill: #1f77b4; fill-opacity: 0.5; stroke: #000000; stroke-width: 0.811636; stroke-linejoin: miter"/>
   </g>
   <g id="patch_7">
    <path d="M 124.756364 256.32 
L 132.872727 256.32 
L 132.872727 219.873982 
L 124.756364 219.873982 
z
" clip-path="url(#pe05ce792cc)" style="fill: #1f77b4; fill-opacity: 0.5; stroke: #000000; stroke-width: 0.811636; stroke-linejoin: miter"/>
   </g>
   <g id="patch_8">
    <path d="M 132.872727 256.32 
L 140.989091 256.32 
L 140.989091 239.810265 
L 132.872727 239.810265 
z
" clip-path="url(#pe05ce792cc)" style="fill: #1f77b4; fill-opacity: 0.5; stroke: #000000; stroke-width: 0.811636; stroke-linejoin: miter"/>
   </g>
   <g id="patch_9">
    <path d="M 140.989091 256.32 
L 149.105455 256.32 
L 149.105455 220.185487 
L 140.989091 220.185487 
z
" clip-path="url(#pe05ce792cc)" style="fill: #1f77b4; fill-opacity: 0.5; stroke: #000000; stroke-width: 0.811636; stroke-linejoin: miter"/>
   </g>
   <g id="patch_10">
    <path d="M 149.105455 256.32 
L 157.221818 256.32 
L 157.221818 171.590796 
L 149.105455 171.590796 
z
" clip-path="url(#pe05ce792cc)" style="fill: #1f77b4; fill-opacity: 0.5; stroke: #000000; stroke-width: 0.811636; stroke-linejoin: miter"/>
   </g>
   <g id="patch_11">
    <path d="M 157.221818 256.32 
L 165.338182 256.32 
L 165.338182 129.226195 
L 157.221818 129.226195 
z
" clip-path="url(#pe05ce792cc)" style="fill: #1f77b4; fill-opacity: 0.5; stroke: #000000; stroke-width: 0.811636; stroke-linejoin: miter"/>
   </g>
   <g id="patch_12">
    <path d="M 165.338182 256.32 
L 173.454545 256.32 
L 173.454545 117.700531 
L 165.338182 117.700531 
z
" clip-path="url(#pe05ce792cc)" style="fill: #1f77b4; fill-opacity: 0.5; stroke: #000000; stroke-width: 0.811636; stroke-linejoin: miter"/>
   </g>
   <g id="patch_13">
    <path d="M 173.454545 256.32 
L 181.570909 256.32 
L 181.570909 91.534159 
L 173.454545 91.534159 
z
" clip-path="url(#pe05ce792cc)" style="fill: #1f77b4; fill-opacity: 0.5; stroke: #000000; stroke-width: 0.811636; stroke-linejoin: miter"/>
   </g>
   <g id="patch_14">
    <path d="M 181.570909 256.32 
L 189.687273 256.32 
L 189.687273 61.006726 
L 181.570909 61.006726 
z
" clip-path="url(#pe05ce792cc)" style="fill: #1f77b4; fill-opacity: 0.5; stroke: #000000; stroke-width: 0.811636; stroke-linejoin: miter"/>
   </g>
   <g id="patch_15">
    <path d="M 189.687273 256.32 
L 197.803636 256.32 
L 197.803636 65.990796 
L 189.687273 65.990796 
z
" clip-path="url(#pe05ce792cc)" style="fill: #1f77b4; fill-opacity: 0.5; stroke: #000000; stroke-width: 0.811636; stroke-linejoin: miter"/>
   </g>
   <g id="patch_16">
    <path d="M 197.803636 256.32 
L 205.92 256.32 
L 205.92 62.252743 
L 197.803636 62.252743 
z
" clip-path="url(#pe05ce792cc)" style="fill: #1f77b4; fill-opacity: 0.5; stroke: #000000; stroke-width: 0.811636; stroke-linejoin: miter"/>
   </g>
   <g id="patch_17">
    <path d="M 205.92 256.32 
L 214.036364 256.32 
L 214.036364 67.548319 
L 205.92 67.548319 
z
" clip-path="url(#pe05ce792cc)" style="fill: #1f77b4; fill-opacity: 0.5; stroke: #000000; stroke-width: 0.811636; stroke-linejoin: miter"/>
   </g>
   <g id="patch_18">
    <path d="M 214.036364 256.32 
L 222.152727 256.32 
L 222.152727 65.679292 
L 214.036364 65.679292 
z
" clip-path="url(#pe05ce792cc)" style="fill: #1f77b4; fill-opacity: 0.5; stroke: #000000; stroke-width: 0.811636; stroke-linejoin: miter"/>
   </g>
   <g id="patch_19">
    <path d="M 222.152727 256.32 
L 230.269091 256.32 
L 230.269091 92.780177 
L 222.152727 92.780177 
z
" clip-path="url(#pe05ce792cc)" style="fill: #1f77b4; fill-opacity: 0.5; stroke: #000000; stroke-width: 0.811636; stroke-linejoin: miter"/>
   </g>
   <g id="patch_20">
    <path d="M 230.269091 256.32 
L 238.385455 256.32 
L 238.385455 46.054513 
L 230.269091 46.054513 
z
" clip-path="url(#pe05ce792cc)" style="fill: #1f77b4; fill-opacity: 0.5; stroke: #000000; stroke-width: 0.811636; stroke-linejoin: miter"/>
   </g>
   <g id="patch_21">
    <path d="M 238.385455 256.32 
L 246.501818 256.32 
L 246.501818 45.12 
L 238.385455 45.12 
z
" clip-path="url(#pe05ce792cc)" style="fill: #1f77b4; fill-opacity: 0.5; stroke: #000000; stroke-width: 0.811636; stroke-linejoin: miter"/>
   </g>
   <g id="patch_22">
    <path d="M 246.501818 256.32 
L 254.618182 256.32 
L 254.618182 94.649204 
L 246.501818 94.649204 
z
" clip-path="url(#pe05ce792cc)" style="fill: #1f77b4; fill-opacity: 0.5; stroke: #000000; stroke-width: 0.811636; stroke-linejoin: miter"/>
   </g>
   <g id="patch_23">
    <path d="M 254.618182 256.32 
L 262.734545 256.32 
L 262.734545 127.357168 
L 254.618182 127.357168 
z
" clip-path="url(#pe05ce792cc)" style="fill: #1f77b4; fill-opacity: 0.5; stroke: #000000; stroke-width: 0.811636; stroke-linejoin: miter"/>
   </g>
   <g id="patch_24">
    <path d="M 262.734545 256.32 
L 270.850909 256.32 
L 270.850909 140.12885 
L 262.734545 140.12885 
z
" clip-path="url(#pe05ce792cc)" style="fill: #1f77b4; fill-opacity: 0.5; stroke: #000000; stroke-width: 0.811636; stroke-linejoin: miter"/>
   </g>
   <g id="patch_25">
    <path d="M 270.850909 256.32 
L 278.967273 256.32 
L 278.967273 140.12885 
L 270.850909 140.12885 
z
" clip-path="url(#pe05ce792cc)" style="fill: #1f77b4; fill-opacity: 0.5; stroke: #000000; stroke-width: 0.811636; stroke-linejoin: miter"/>
   </g>
   <g id="patch_26">
    <path d="M 278.967273 256.32 
L 287.083636 256.32 
L 287.083636 142.620885 
L 278.967273 142.620885 
z
" clip-path="url(#pe05ce792cc)" style="fill: #1f77b4; fill-opacity: 0.5; stroke: #000000; stroke-width: 0.811636; stroke-linejoin: miter"/>
   </g>
   <g id="patch_27">
    <path d="M 287.083636 256.32 
L 295.2 256.32 
L 295.2 153.52354 
L 287.083636 153.52354 
z
" clip-path="url(#pe05ce792cc)" style="fill: #1f77b4; fill-opacity: 0.5; stroke: #000000; stroke-width: 0.811636; stroke-linejoin: miter"/>
   </g>
   <g id="patch_28">
    <path d="M 295.2 256.32 
L 303.316364 256.32 
L 303.316364 146.047434 
L 295.2 146.047434 
z
" clip-path="url(#pe05ce792cc)" style="fill: #1f77b4; fill-opacity: 0.5; stroke: #000000; stroke-width: 0.811636; stroke-linejoin: miter"/>
   </g>
   <g id="patch_29">
    <path d="M 303.316364 256.32 
L 311.432727 256.32 
L 311.432727 159.130619 
L 303.316364 159.130619 
z
" clip-path="url(#pe05ce792cc)" style="fill: #1f77b4; fill-opacity: 0.5; stroke: #000000; stroke-width: 0.811636; stroke-linejoin: miter"/>
   </g>
   <g id="patch_30">
    <path d="M 311.432727 256.32 
L 319.549091 256.32 
L 319.549091 176.263363 
L 311.432727 176.263363 
z
" clip-path="url(#pe05ce792cc)" style="fill: #1f77b4; fill-opacity: 0.5; stroke: #000000; stroke-width: 0.811636; stroke-linejoin: miter"/>
   </g>
   <g id="patch_31">
    <path d="M 319.549091 256.32 
L 327.665455 256.32 
L 327.665455 190.592566 
L 319.549091 190.592566 
z
" clip-path="url(#pe05ce792cc)" style="fill: #1f77b4; fill-opacity: 0.5; stroke: #000000; stroke-width: 0.811636; stroke-linejoin: miter"/>
   </g>
   <g id="patch_32">
    <path d="M 327.665455 256.32 
L 335.781818 256.32 
L 335.781818 197.134159 
L 327.665455 197.134159 
z
" clip-path="url(#pe05ce792cc)" style="fill: #1f77b4; fill-opacity: 0.5; stroke: #000000; stroke-width: 0.811636; stroke-linejoin: miter"/>
   </g>
   <g id="patch_33">
    <path d="M 335.781818 256.32 
L 343.898182 256.32 
L 343.898182 195.576637 
L 335.781818 195.576637 
z
" clip-path="url(#pe05ce792cc)" style="fill: #1f77b4; fill-opacity: 0.5; stroke: #000000; stroke-width: 0.811636; stroke-linejoin: miter"/>
   </g>
   <g id="patch_34">
    <path d="M 343.898182 256.32 
L 352.014545 256.32 
L 352.014545 200.872212 
L 343.898182 200.872212 
z
" clip-path="url(#pe05ce792cc)" style="fill: #1f77b4; fill-opacity: 0.5; stroke: #000000; stroke-width: 0.811636; stroke-linejoin: miter"/>
   </g>
   <g id="patch_35">
    <path d="M 352.014545 256.32 
L 360.130909 256.32 
L 360.130909 197.445664 
L 352.014545 197.445664 
z
" clip-path="url(#pe05ce792cc)" style="fill: #1f77b4; fill-opacity: 0.5; stroke: #000000; stroke-width: 0.811636; stroke-linejoin: miter"/>
   </g>
   <g id="patch_36">
    <path d="M 360.130909 256.32 
L 368.247273 256.32 
L 368.247273 213.332389 
L 360.130909 213.332389 
z
" clip-path="url(#pe05ce792cc)" style="fill: #1f77b4; fill-opacity: 0.5; stroke: #000000; stroke-width: 0.811636; stroke-linejoin: miter"/>
   </g>
   <g id="patch_37">
    <path d="M 368.247273 256.32 
L 376.363636 256.32 
L 376.363636 218.004956 
L 368.247273 218.004956 
z
" clip-path="url(#pe05ce792cc)" style="fill: #1f77b4; fill-opacity: 0.5; stroke: #000000; stroke-width: 0.811636; stroke-linejoin: miter"/>
   </g>
   <g id="patch_38">
    <path d="M 376.363636 256.32 
L 384.48 256.32 
L 384.48 222.054513 
L 376.363636 222.054513 
z
" clip-path="url(#pe05ce792cc)" style="fill: #1f77b4; fill-opacity: 0.5; stroke: #000000; stroke-width: 0.811636; stroke-linejoin: miter"/>
   </g>
   <g id="patch_39">
    <path d="M 384.48 256.32 
L 392.596364 256.32 
L 392.596364 215.51292 
L 384.48 215.51292 
z
" clip-path="url(#pe05ce792cc)" style="fill: #1f77b4; fill-opacity: 0.5; stroke: #000000; stroke-width: 0.811636; stroke-linejoin: miter"/>
   </g>
   <g id="patch_40">
    <path d="M 392.596364 256.32 
L 400.712727 256.32 
L 400.712727 217.381947 
L 392.596364 217.381947 
z
" clip-path="url(#pe05ce792cc)" style="fill: #1f77b4; fill-opacity: 0.5; stroke: #000000; stroke-width: 0.811636; stroke-linejoin: miter"/>
   </g>
   <g id="patch_41">
    <path d="M 400.712727 256.32 
L 408.829091 256.32 
L 408.829091 229.530619 
L 400.712727 229.530619 
z
" clip-path="url(#pe05ce792cc)" style="fill: #1f77b4; fill-opacity: 0.5; stroke: #000000; stroke-width: 0.811636; stroke-linejoin: miter"/>
   </g>
   <g id="patch_42">
    <path d="M 408.829091 256.32 
L 416.945455 256.32 
L 416.945455 227.350088 
L 408.829091 227.350088 
z
" clip-path="url(#pe05ce792cc)" style="fill: #1f77b4; fill-opacity: 0.5; stroke: #000000; stroke-width: 0.811636; stroke-linejoin: miter"/>
   </g>
   <g id="patch_43">
    <path d="M 416.945455 256.32 
L 425.061818 256.32 
L 425.061818 227.350088 
L 416.945455 227.350088 
z
" clip-path="url(#pe05ce792cc)" style="fill: #1f77b4; fill-opacity: 0.5; stroke: #000000; stroke-width: 0.811636; stroke-linejoin: miter"/>
   </g>
   <g id="patch_44">
    <path d="M 425.061818 256.32 
L 433.178182 256.32 
L 433.178182 233.268673 
L 425.061818 233.268673 
z
" clip-path="url(#pe05ce792cc)" style="fill: #1f77b4; fill-opacity: 0.5; stroke: #000000; stroke-width: 0.811636; stroke-linejoin: miter"/>
   </g>
   <g id="patch_45">
    <path d="M 433.178182 256.32 
L 441.294545 256.32 
L 441.294545 234.51469 
L 433.178182 234.51469 
z
" clip-path="url(#pe05ce792cc)" style="fill: #1f77b4; fill-opacity: 0.5; stroke: #000000; stroke-width: 0.811636; stroke-linejoin: miter"/>
   </g>
   <g id="patch_46">
    <path d="M 441.294545 256.32 
L 449.410909 256.32 
L 449.410909 233.891681 
L 441.294545 233.891681 
z
" clip-path="url(#pe05ce792cc)" style="fill: #1f77b4; fill-opacity: 0.5; stroke: #000000; stroke-width: 0.811636; stroke-linejoin: miter"/>
   </g>
   <g id="patch_47">
    <path d="M 449.410909 256.32 
L 457.527273 256.32 
L 457.527273 229.530619 
L 449.410909 229.530619 
z
" clip-path="url(#pe05ce792cc)" style="fill: #1f77b4; fill-opacity: 0.5; stroke: #000000; stroke-width: 0.811636; stroke-linejoin: miter"/>
   </g>
   <g id="patch_48">
    <path d="M 457.527273 256.32 
L 465.643636 256.32 
L 465.643636 232.334159 
L 457.527273 232.334159 
z
" clip-path="url(#pe05ce792cc)" style="fill: #1f77b4; fill-opacity: 0.5; stroke: #000000; stroke-width: 0.811636; stroke-linejoin: miter"/>
   </g>
   <g id="patch_49">
    <path d="M 465.643636 256.32 
L 473.76 256.32 
L 473.76 231.399646 
L 465.643636 231.399646 
z
" clip-path="url(#pe05ce792cc)" style="fill: #1f77b4; fill-opacity: 0.5; stroke: #000000; stroke-width: 0.811636; stroke-linejoin: miter"/>
   </g>
   <g id="patch_50">
    <path d="M 473.76 256.32 
L 481.876364 256.32 
L 481.876364 227.350088 
L 473.76 227.350088 
z
" clip-path="url(#pe05ce792cc)" style="fill: #1f77b4; fill-opacity: 0.5; stroke: #000000; stroke-width: 0.811636; stroke-linejoin: miter"/>
   </g>
   <g id="patch_51">
    <path d="M 481.876364 256.32 
L 489.992727 256.32 
L 489.992727 227.038584 
L 481.876364 227.038584 
z
" clip-path="url(#pe05ce792cc)" style="fill: #1f77b4; fill-opacity: 0.5; stroke: #000000; stroke-width: 0.811636; stroke-linejoin: miter"/>
   </g>
   <g id="patch_52">
    <path d="M 489.992727 256.32 
L 498.109091 256.32 
L 498.109091 232.022655 
L 489.992727 232.022655 
z
" clip-path="url(#pe05ce792cc)" style="fill: #1f77b4; fill-opacity: 0.5; stroke: #000000; stroke-width: 0.811636; stroke-linejoin: miter"/>
   </g>
   <g id="matplotlib.axis_1">
    <g id="xtick_1">
     <g id="line2d_1">
      <defs>
       <path id="ma37a39bd9c" d="M 0 0 
L 0 3.5 
" style="stroke: #000000; stroke-width: 0.8"/>
      </defs>
      <g>
       <use xlink:href="#ma37a39bd9c" x="78.87578" y="256.32" style="stroke: #000000; stroke-width: 0.8"/>
      </g>
     </g>
     <g id="text_1">
      <!-- −5 -->
      <g transform="translate(71.504686 270.918437) scale(0.1 -0.1)">
       <defs>
        <path id="DejaVuSans-2212" d="M 678 2272 
L 4684 2272 
L 4684 1741 
L 678 1741 
L 678 2272 
z
" transform="scale(0.015625)"/>
        <path id="DejaVuSans-35" d="M 691 4666 
L 3169 4666 
L 3169 4134 
L 1269 4134 
L 1269 2991 
Q 1406 3038 1543 3061 
Q 1681 3084 1819 3084 
Q 2600 3084 3056 2656 
Q 3513 2228 3513 1497 
Q 3513 744 3044 326 
Q 2575 -91 1722 -91 
Q 1428 -91 1123 -41 
Q 819 9 494 109 
L 494 744 
Q 775 591 1075 516 
Q 1375 441 1709 441 
Q 2250 441 2565 725 
Q 2881 1009 2881 1497 
Q 2881 1984 2565 2268 
Q 2250 2553 1709 2553 
Q 1456 2553 1204 2497 
Q 953 2441 691 2322 
L 691 4666 
z
" transform="scale(0.015625)"/>
       </defs>
       <use xlink:href="#DejaVuSans-2212"/>
       <use xlink:href="#DejaVuSans-35" x="83.789062"/>
      </g>
     </g>
    </g>
    <g id="xtick_2">
     <g id="line2d_2">
      <g>
       <use xlink:href="#ma37a39bd9c" x="131.608204" y="256.32" style="stroke: #000000; stroke-width: 0.8"/>
      </g>
     </g>
     <g id="text_2">
      <!-- 0 -->
      <g transform="translate(128.426954 270.918437) scale(0.1 -0.1)">
       <defs>
        <path id="DejaVuSans-30" d="M 2034 4250 
Q 1547 4250 1301 3770 
Q 1056 3291 1056 2328 
Q 1056 1369 1301 889 
Q 1547 409 2034 409 
Q 2525 409 2770 889 
Q 3016 1369 3016 2328 
Q 3016 3291 2770 3770 
Q 2525 4250 2034 4250 
z
M 2034 4750 
Q 2819 4750 3233 4129 
Q 3647 3509 3647 2328 
Q 3647 1150 3233 529 
Q 2819 -91 2034 -91 
Q 1250 -91 836 529 
Q 422 1150 422 2328 
Q 422 3509 836 4129 
Q 1250 4750 2034 4750 
z
" transform="scale(0.015625)"/>
       </defs>
       <use xlink:href="#DejaVuSans-30"/>
      </g>
     </g>
    </g>
    <g id="xtick_3">
     <g id="line2d_3">
      <g>
       <use xlink:href="#ma37a39bd9c" x="184.340628" y="256.32" style="stroke: #000000; stroke-width: 0.8"/>
      </g>
     </g>
     <g id="text_3">
      <!-- 5 -->
      <g transform="translate(181.159378 270.918437) scale(0.1 -0.1)">
       <use xlink:href="#DejaVuSans-35"/>
      </g>
     </g>
    </g>
    <g id="xtick_4">
     <g id="line2d_4">
      <g>
       <use xlink:href="#ma37a39bd9c" x="237.073052" y="256.32" style="stroke: #000000; stroke-width: 0.8"/>
      </g>
     </g>
     <g id="text_4">
      <!-- 10 -->
      <g transform="translate(230.710552 270.918437) scale(0.1 -0.1)">
       <defs>
        <path id="DejaVuSans-31" d="M 794 531 
L 1825 531 
L 1825 4091 
L 703 3866 
L 703 4441 
L 1819 4666 
L 2450 4666 
L 2450 531 
L 3481 531 
L 3481 0 
L 794 0 
L 794 531 
z
" transform="scale(0.015625)"/>
       </defs>
       <use xlink:href="#DejaVuSans-31"/>
       <use xlink:href="#DejaVuSans-30" x="63.623047"/>
      </g>
     </g>
    </g>
    <g id="xtick_5">
     <g id="line2d_5">
      <g>
       <use xlink:href="#ma37a39bd9c" x="289.805476" y="256.32" style="stroke: #000000; stroke-width: 0.8"/>
      </g>
     </g>
     <g id="text_5">
      <!-- 15 -->
      <g transform="translate(283.442976 270.918437) scale(0.1 -0.1)">
       <use xlink:href="#DejaVuSans-31"/>
       <use xlink:href="#DejaVuSans-35" x="63.623047"/>
      </g>
     </g>
    </g>
    <g id="xtick_6">
     <g id="line2d_6">
      <g>
       <use xlink:href="#ma37a39bd9c" x="342.5379" y="256.32" style="stroke: #000000; stroke-width: 0.8"/>
      </g>
     </g>
     <g id="text_6">
      <!-- 20 -->
      <g transform="translate(336.1754 270.918437) scale(0.1 -0.1)">
       <defs>
        <path id="DejaVuSans-32" d="M 1228 531 
L 3431 531 
L 3431 0 
L 469 0 
L 469 531 
Q 828 903 1448 1529 
Q 2069 2156 2228 2338 
Q 2531 2678 2651 2914 
Q 2772 3150 2772 3378 
Q 2772 3750 2511 3984 
Q 2250 4219 1831 4219 
Q 1534 4219 1204 4116 
Q 875 4013 500 3803 
L 500 4441 
Q 881 4594 1212 4672 
Q 1544 4750 1819 4750 
Q 2544 4750 2975 4387 
Q 3406 4025 3406 3419 
Q 3406 3131 3298 2873 
Q 3191 2616 2906 2266 
Q 2828 2175 2409 1742 
Q 1991 1309 1228 531 
z
" transform="scale(0.015625)"/>
       </defs>
       <use xlink:href="#DejaVuSans-32"/>
       <use xlink:href="#DejaVuSans-30" x="63.623047"/>
      </g>
     </g>
    </g>
    <g id="xtick_7">
     <g id="line2d_7">
      <g>
       <use xlink:href="#ma37a39bd9c" x="395.270323" y="256.32" style="stroke: #000000; stroke-width: 0.8"/>
      </g>
     </g>
     <g id="text_7">
      <!-- 25 -->
      <g transform="translate(388.907823 270.918437) scale(0.1 -0.1)">
       <use xlink:href="#DejaVuSans-32"/>
       <use xlink:href="#DejaVuSans-35" x="63.623047"/>
      </g>
     </g>
    </g>
    <g id="xtick_8">
     <g id="line2d_8">
      <g>
       <use xlink:href="#ma37a39bd9c" x="448.002747" y="256.32" style="stroke: #000000; stroke-width: 0.8"/>
      </g>
     </g>
     <g id="text_8">
      <!-- 30 -->
      <g transform="translate(441.640247 270.918437) scale(0.1 -0.1)">
       <defs>
        <path id="DejaVuSans-33" d="M 2597 2516 
Q 3050 2419 3304 2112 
Q 3559 1806 3559 1356 
Q 3559 666 3084 287 
Q 2609 -91 1734 -91 
Q 1441 -91 1130 -33 
Q 819 25 488 141 
L 488 750 
Q 750 597 1062 519 
Q 1375 441 1716 441 
Q 2309 441 2620 675 
Q 2931 909 2931 1356 
Q 2931 1769 2642 2001 
Q 2353 2234 1838 2234 
L 1294 2234 
L 1294 2753 
L 1863 2753 
Q 2328 2753 2575 2939 
Q 2822 3125 2822 3475 
Q 2822 3834 2567 4026 
Q 2313 4219 1838 4219 
Q 1578 4219 1281 4162 
Q 984 4106 628 3988 
L 628 4550 
Q 988 4650 1302 4700 
Q 1616 4750 1894 4750 
Q 2613 4750 3031 4423 
Q 3450 4097 3450 3541 
Q 3450 3153 3228 2886 
Q 3006 2619 2597 2516 
z
" transform="scale(0.015625)"/>
       </defs>
       <use xlink:href="#DejaVuSans-33"/>
       <use xlink:href="#DejaVuSans-30" x="63.623047"/>
      </g>
     </g>
    </g>
    <g id="xtick_9">
     <g id="line2d_9">
      <g>
       <use xlink:href="#ma37a39bd9c" x="500.735171" y="256.32" style="stroke: #000000; stroke-width: 0.8"/>
      </g>
     </g>
     <g id="text_9">
      <!-- 35 -->
      <g transform="translate(494.372671 270.918437) scale(0.1 -0.1)">
       <use xlink:href="#DejaVuSans-33"/>
       <use xlink:href="#DejaVuSans-35" x="63.623047"/>
      </g>
     </g>
    </g>
    <g id="text_10">
     <!-- OT -->
     <g transform="translate(288.210156 284.596563) scale(0.1 -0.1)">
      <defs>
       <path id="DejaVuSans-4f" d="M 2522 4238 
Q 1834 4238 1429 3725 
Q 1025 3213 1025 2328 
Q 1025 1447 1429 934 
Q 1834 422 2522 422 
Q 3209 422 3611 934 
Q 4013 1447 4013 2328 
Q 4013 3213 3611 3725 
Q 3209 4238 2522 4238 
z
M 2522 4750 
Q 3503 4750 4090 4092 
Q 4678 3434 4678 2328 
Q 4678 1225 4090 567 
Q 3503 -91 2522 -91 
Q 1538 -91 948 565 
Q 359 1222 359 2328 
Q 359 3434 948 4092 
Q 1538 4750 2522 4750 
z
" transform="scale(0.015625)"/>
       <path id="DejaVuSans-54" d="M -19 4666 
L 3928 4666 
L 3928 4134 
L 2272 4134 
L 2272 0 
L 1638 0 
L 1638 4134 
L -19 4134 
L -19 4666 
z
" transform="scale(0.015625)"/>
      </defs>
      <use xlink:href="#DejaVuSans-4f"/>
      <use xlink:href="#DejaVuSans-54" x="78.710938"/>
     </g>
    </g>
   </g>
   <g id="matplotlib.axis_2">
    <g id="ytick_1">
     <g id="line2d_10">
      <defs>
       <path id="m501741115b" d="M 0 0 
L -3.5 0 
" style="stroke: #000000; stroke-width: 0.8"/>
      </defs>
      <g>
       <use xlink:href="#m501741115b" x="72" y="256.32" style="stroke: #000000; stroke-width: 0.8"/>
      </g>
     </g>
     <g id="text_11">
      <!-- 0 -->
      <g transform="translate(58.6375 260.119219) scale(0.1 -0.1)">
       <use xlink:href="#DejaVuSans-30"/>
      </g>
     </g>
    </g>
    <g id="ytick_2">
     <g id="line2d_11">
      <g>
       <use xlink:href="#m501741115b" x="72" y="225.169558" style="stroke: #000000; stroke-width: 0.8"/>
      </g>
     </g>
     <g id="text_12">
      <!-- 100 -->
      <g transform="translate(45.9125 228.968776) scale(0.1 -0.1)">
       <use xlink:href="#DejaVuSans-31"/>
       <use xlink:href="#DejaVuSans-30" x="63.623047"/>
       <use xlink:href="#DejaVuSans-30" x="127.246094"/>
      </g>
     </g>
    </g>
    <g id="ytick_3">
     <g id="line2d_12">
      <g>
       <use xlink:href="#m501741115b" x="72" y="194.019115" style="stroke: #000000; stroke-width: 0.8"/>
      </g>
     </g>
     <g id="text_13">
      <!-- 200 -->
      <g transform="translate(45.9125 197.818334) scale(0.1 -0.1)">
       <use xlink:href="#DejaVuSans-32"/>
       <use xlink:href="#DejaVuSans-30" x="63.623047"/>
       <use xlink:href="#DejaVuSans-30" x="127.246094"/>
      </g>
     </g>
    </g>
    <g id="ytick_4">
     <g id="line2d_13">
      <g>
       <use xlink:href="#m501741115b" x="72" y="162.868673" style="stroke: #000000; stroke-width: 0.8"/>
      </g>
     </g>
     <g id="text_14">
      <!-- 300 -->
      <g transform="translate(45.9125 166.667891) scale(0.1 -0.1)">
       <use xlink:href="#DejaVuSans-33"/>
       <use xlink:href="#DejaVuSans-30" x="63.623047"/>
       <use xlink:href="#DejaVuSans-30" x="127.246094"/>
      </g>
     </g>
    </g>
    <g id="ytick_5">
     <g id="line2d_14">
      <g>
       <use xlink:href="#m501741115b" x="72" y="131.71823" style="stroke: #000000; stroke-width: 0.8"/>
      </g>
     </g>
     <g id="text_15">
      <!-- 400 -->
      <g transform="translate(45.9125 135.517449) scale(0.1 -0.1)">
       <defs>
        <path id="DejaVuSans-34" d="M 2419 4116 
L 825 1625 
L 2419 1625 
L 2419 4116 
z
M 2253 4666 
L 3047 4666 
L 3047 1625 
L 3713 1625 
L 3713 1100 
L 3047 1100 
L 3047 0 
L 2419 0 
L 2419 1100 
L 313 1100 
L 313 1709 
L 2253 4666 
z
" transform="scale(0.015625)"/>
       </defs>
       <use xlink:href="#DejaVuSans-34"/>
       <use xlink:href="#DejaVuSans-30" x="63.623047"/>
       <use xlink:href="#DejaVuSans-30" x="127.246094"/>
      </g>
     </g>
    </g>
    <g id="ytick_6">
     <g id="line2d_15">
      <g>
       <use xlink:href="#m501741115b" x="72" y="100.567788" style="stroke: #000000; stroke-width: 0.8"/>
      </g>
     </g>
     <g id="text_16">
      <!-- 500 -->
      <g transform="translate(45.9125 104.367006) scale(0.1 -0.1)">
       <use xlink:href="#DejaVuSans-35"/>
       <use xlink:href="#DejaVuSans-30" x="63.623047"/>
       <use xlink:href="#DejaVuSans-30" x="127.246094"/>
      </g>
     </g>
    </g>
    <g id="ytick_7">
     <g id="line2d_16">
      <g>
       <use xlink:href="#m501741115b" x="72" y="69.417345" style="stroke: #000000; stroke-width: 0.8"/>
      </g>
     </g>
     <g id="text_17">
      <!-- 600 -->
      <g transform="translate(45.9125 73.216564) scale(0.1 -0.1)">
       <defs>
        <path id="DejaVuSans-36" d="M 2113 2584 
Q 1688 2584 1439 2293 
Q 1191 2003 1191 1497 
Q 1191 994 1439 701 
Q 1688 409 2113 409 
Q 2538 409 2786 701 
Q 3034 994 3034 1497 
Q 3034 2003 2786 2293 
Q 2538 2584 2113 2584 
z
M 3366 4563 
L 3366 3988 
Q 3128 4100 2886 4159 
Q 2644 4219 2406 4219 
Q 1781 4219 1451 3797 
Q 1122 3375 1075 2522 
Q 1259 2794 1537 2939 
Q 1816 3084 2150 3084 
Q 2853 3084 3261 2657 
Q 3669 2231 3669 1497 
Q 3669 778 3244 343 
Q 2819 -91 2113 -91 
Q 1303 -91 875 529 
Q 447 1150 447 2328 
Q 447 3434 972 4092 
Q 1497 4750 2381 4750 
Q 2619 4750 2861 4703 
Q 3103 4656 3366 4563 
z
" transform="scale(0.015625)"/>
       </defs>
       <use xlink:href="#DejaVuSans-36"/>
       <use xlink:href="#DejaVuSans-30" x="63.623047"/>
       <use xlink:href="#DejaVuSans-30" x="127.246094"/>
      </g>
     </g>
    </g>
    <g id="ytick_8">
     <g id="line2d_17">
      <g>
       <use xlink:href="#m501741115b" x="72" y="38.266903" style="stroke: #000000; stroke-width: 0.8"/>
      </g>
     </g>
     <g id="text_18">
      <!-- 700 -->
      <g transform="translate(45.9125 42.066121) scale(0.1 -0.1)">
       <defs>
        <path id="DejaVuSans-37" d="M 525 4666 
L 3525 4666 
L 3525 4397 
L 1831 0 
L 1172 0 
L 2766 4134 
L 525 4134 
L 525 4666 
z
" transform="scale(0.015625)"/>
       </defs>
       <use xlink:href="#DejaVuSans-37"/>
       <use xlink:href="#DejaVuSans-30" x="63.623047"/>
       <use xlink:href="#DejaVuSans-30" x="127.246094"/>
      </g>
     </g>
    </g>
    <g id="text_19">
     <!-- Count -->
     <g transform="translate(39.832812 160.288437) rotate(-90) scale(0.1 -0.1)">
      <defs>
       <path id="DejaVuSans-43" d="M 4122 4306 
L 4122 3641 
Q 3803 3938 3442 4084 
Q 3081 4231 2675 4231 
Q 1875 4231 1450 3742 
Q 1025 3253 1025 2328 
Q 1025 1406 1450 917 
Q 1875 428 2675 428 
Q 3081 428 3442 575 
Q 3803 722 4122 1019 
L 4122 359 
Q 3791 134 3420 21 
Q 3050 -91 2638 -91 
Q 1578 -91 968 557 
Q 359 1206 359 2328 
Q 359 3453 968 4101 
Q 1578 4750 2638 4750 
Q 3056 4750 3426 4639 
Q 3797 4528 4122 4306 
z
" transform="scale(0.015625)"/>
       <path id="DejaVuSans-6f" d="M 1959 3097 
Q 1497 3097 1228 2736 
Q 959 2375 959 1747 
Q 959 1119 1226 758 
Q 1494 397 1959 397 
Q 2419 397 2687 759 
Q 2956 1122 2956 1747 
Q 2956 2369 2687 2733 
Q 2419 3097 1959 3097 
z
M 1959 3584 
Q 2709 3584 3137 3096 
Q 3566 2609 3566 1747 
Q 3566 888 3137 398 
Q 2709 -91 1959 -91 
Q 1206 -91 779 398 
Q 353 888 353 1747 
Q 353 2609 779 3096 
Q 1206 3584 1959 3584 
z
" transform="scale(0.015625)"/>
       <path id="DejaVuSans-75" d="M 544 1381 
L 544 3500 
L 1119 3500 
L 1119 1403 
Q 1119 906 1312 657 
Q 1506 409 1894 409 
Q 2359 409 2629 706 
Q 2900 1003 2900 1516 
L 2900 3500 
L 3475 3500 
L 3475 0 
L 2900 0 
L 2900 538 
Q 2691 219 2414 64 
Q 2138 -91 1772 -91 
Q 1169 -91 856 284 
Q 544 659 544 1381 
z
M 1991 3584 
L 1991 3584 
z
" transform="scale(0.015625)"/>
       <path id="DejaVuSans-6e" d="M 3513 2113 
L 3513 0 
L 2938 0 
L 2938 2094 
Q 2938 2591 2744 2837 
Q 2550 3084 2163 3084 
Q 1697 3084 1428 2787 
Q 1159 2491 1159 1978 
L 1159 0 
L 581 0 
L 581 3500 
L 1159 3500 
L 1159 2956 
Q 1366 3272 1645 3428 
Q 1925 3584 2291 3584 
Q 2894 3584 3203 3211 
Q 3513 2838 3513 2113 
z
" transform="scale(0.015625)"/>
       <path id="DejaVuSans-74" d="M 1172 4494 
L 1172 3500 
L 2356 3500 
L 2356 3053 
L 1172 3053 
L 1172 1153 
Q 1172 725 1289 603 
Q 1406 481 1766 481 
L 2356 481 
L 2356 0 
L 1766 0 
Q 1100 0 847 248 
Q 594 497 594 1153 
L 594 3053 
L 172 3053 
L 172 3500 
L 594 3500 
L 594 4494 
L 1172 4494 
z
" transform="scale(0.015625)"/>
      </defs>
      <use xlink:href="#DejaVuSans-43"/>
      <use xlink:href="#DejaVuSans-6f" x="69.824219"/>
      <use xlink:href="#DejaVuSans-75" x="131.005859"/>
      <use xlink:href="#DejaVuSans-6e" x="194.384766"/>
      <use xlink:href="#DejaVuSans-74" x="257.763672"/>
     </g>
    </g>
   </g>
   <g id="line2d_18">
    <path d="M 92.290909 253.281736 
L 96.369484 251.969324 
L 100.448058 250.436887 
L 104.526633 248.721741 
L 108.605208 246.821728 
L 112.683783 244.674469 
L 116.762357 242.164507 
L 118.801645 240.728654 
L 120.840932 239.145935 
L 122.880219 237.394804 
L 124.919507 235.451132 
L 126.958794 233.286977 
L 128.998081 230.869587 
L 131.037369 228.161178 
L 133.076656 225.11992 
L 135.115943 221.702382 
L 137.155231 217.867385 
L 139.194518 213.580854 
L 141.233805 208.820991 
L 143.273093 203.582908 
L 145.31238 197.881852 
L 147.351667 191.754346 
L 151.430242 178.462257 
L 157.548104 157.14495 
L 163.665966 136.0871 
L 167.744541 122.93164 
L 171.823116 110.765118 
L 175.90169 99.782216 
L 177.940978 94.808073 
L 179.980265 90.22386 
L 182.019552 86.062674 
L 184.05884 82.352391 
L 186.098127 79.111703 
L 188.137414 76.346928 
L 190.176702 74.050147 
L 192.215989 72.198873 
L 194.255276 70.757201 
L 196.294564 69.678112 
L 198.333851 68.906451 
L 200.373138 68.382098 
L 202.412426 68.042932 
L 206.491 67.676482 
L 210.569575 67.357421 
L 214.64815 66.741467 
L 218.726725 65.67235 
L 226.883874 63.07796 
L 228.923161 62.788046 
L 230.962449 62.862641 
L 233.001736 63.416995 
L 235.041023 64.551984 
L 237.080311 66.3433 
L 239.119598 68.832557 
L 241.158885 72.021535 
L 243.198173 75.870366 
L 245.23746 80.299887 
L 247.276747 85.197861 
L 251.355322 95.842177 
L 255.433897 106.631104 
L 257.473184 111.744644 
L 259.512471 116.534341 
L 261.551759 120.932712 
L 263.591046 124.901425 
L 265.630333 128.429251 
L 267.669621 131.528098 
L 269.708908 134.227866 
L 271.748196 136.570892 
L 273.787483 138.606656 
L 275.82677 140.38723 
L 277.866058 141.963784 
L 281.944632 144.692151 
L 294.180356 152.10662 
L 298.258931 155.104124 
L 300.298218 156.814685 
L 302.337506 158.690115 
L 304.376793 160.739611 
L 308.455368 165.349461 
L 312.533942 170.511086 
L 320.691092 181.203658 
L 324.769667 185.960428 
L 326.808954 188.055226 
L 328.848241 189.934952 
L 330.887529 191.595053 
L 332.926816 193.042628 
L 334.966103 194.295297 
L 337.005391 195.379554 
L 341.083965 197.180877 
L 349.241115 200.404915 
L 353.319689 202.356871 
L 357.398264 204.696329 
L 361.476839 207.347744 
L 367.594701 211.437372 
L 371.673275 213.864804 
L 375.75185 215.843538 
L 379.830425 217.351353 
L 383.909 218.509065 
L 394.105436 221.158811 
L 400.223298 223.145395 
L 410.419735 226.592916 
L 416.537597 228.337386 
L 422.655459 229.828621 
L 428.773321 231.083417 
L 432.851896 231.731489 
L 436.930471 232.174638 
L 441.009045 232.393434 
L 445.08762 232.407922 
L 451.205482 232.160094 
L 461.401919 231.433936 
L 469.559068 230.838485 
L 473.637643 230.734778 
L 475.67693 230.806537 
L 477.716217 230.999438 
L 479.755505 231.343228 
L 481.794792 231.864789 
L 483.834079 232.585035 
L 485.873367 233.516029 
L 487.912654 234.658728 
L 489.951942 236.001682 
L 491.991229 237.520936 
L 496.069804 240.938202 
L 498.109091 242.741969 
L 498.109091 242.741969 
" clip-path="url(#pe05ce792cc)" style="fill: none; stroke: #1f77b4; stroke-width: 1.5; stroke-linecap: square"/>
   </g>
   <g id="patch_53">
    <path d="M 72 256.32 
L 72 34.56 
" style="fill: none; stroke: #000000; stroke-width: 0.8; stroke-linejoin: miter; stroke-linecap: square"/>
   </g>
   <g id="patch_54">
    <path d="M 518.4 256.32 
L 518.4 34.56 
" style="fill: none; stroke: #000000; stroke-width: 0.8; stroke-linejoin: miter; stroke-linecap: square"/>
   </g>
   <g id="patch_55">
    <path d="M 72 256.32 
L 518.4 256.32 
" style="fill: none; stroke: #000000; stroke-width: 0.8; stroke-linejoin: miter; stroke-linecap: square"/>
   </g>
   <g id="patch_56">
    <path d="M 72 34.56 
L 518.4 34.56 
" style="fill: none; stroke: #000000; stroke-width: 0.8; stroke-linejoin: miter; stroke-linecap: square"/>
   </g>
   <g id="text_20">
    <!-- Distribution of Oil Temperature (OT) -->
    <g transform="translate(187.656563 28.56) scale(0.12 -0.12)">
     <defs>
      <path id="DejaVuSans-44" d="M 1259 4147 
L 1259 519 
L 2022 519 
Q 2988 519 3436 956 
Q 3884 1394 3884 2338 
Q 3884 3275 3436 3711 
Q 2988 4147 2022 4147 
L 1259 4147 
z
M 628 4666 
L 1925 4666 
Q 3281 4666 3915 4102 
Q 4550 3538 4550 2338 
Q 4550 1131 3912 565 
Q 3275 0 1925 0 
L 628 0 
L 628 4666 
z
" transform="scale(0.015625)"/>
      <path id="DejaVuSans-69" d="M 603 3500 
L 1178 3500 
L 1178 0 
L 603 0 
L 603 3500 
z
M 603 4863 
L 1178 4863 
L 1178 4134 
L 603 4134 
L 603 4863 
z
" transform="scale(0.015625)"/>
      <path id="DejaVuSans-73" d="M 2834 3397 
L 2834 2853 
Q 2591 2978 2328 3040 
Q 2066 3103 1784 3103 
Q 1356 3103 1142 2972 
Q 928 2841 928 2578 
Q 928 2378 1081 2264 
Q 1234 2150 1697 2047 
L 1894 2003 
Q 2506 1872 2764 1633 
Q 3022 1394 3022 966 
Q 3022 478 2636 193 
Q 2250 -91 1575 -91 
Q 1294 -91 989 -36 
Q 684 19 347 128 
L 347 722 
Q 666 556 975 473 
Q 1284 391 1588 391 
Q 1994 391 2212 530 
Q 2431 669 2431 922 
Q 2431 1156 2273 1281 
Q 2116 1406 1581 1522 
L 1381 1569 
Q 847 1681 609 1914 
Q 372 2147 372 2553 
Q 372 3047 722 3315 
Q 1072 3584 1716 3584 
Q 2034 3584 2315 3537 
Q 2597 3491 2834 3397 
z
" transform="scale(0.015625)"/>
      <path id="DejaVuSans-72" d="M 2631 2963 
Q 2534 3019 2420 3045 
Q 2306 3072 2169 3072 
Q 1681 3072 1420 2755 
Q 1159 2438 1159 1844 
L 1159 0 
L 581 0 
L 581 3500 
L 1159 3500 
L 1159 2956 
Q 1341 3275 1631 3429 
Q 1922 3584 2338 3584 
Q 2397 3584 2469 3576 
Q 2541 3569 2628 3553 
L 2631 2963 
z
" transform="scale(0.015625)"/>
      <path id="DejaVuSans-62" d="M 3116 1747 
Q 3116 2381 2855 2742 
Q 2594 3103 2138 3103 
Q 1681 3103 1420 2742 
Q 1159 2381 1159 1747 
Q 1159 1113 1420 752 
Q 1681 391 2138 391 
Q 2594 391 2855 752 
Q 3116 1113 3116 1747 
z
M 1159 2969 
Q 1341 3281 1617 3432 
Q 1894 3584 2278 3584 
Q 2916 3584 3314 3078 
Q 3713 2572 3713 1747 
Q 3713 922 3314 415 
Q 2916 -91 2278 -91 
Q 1894 -91 1617 61 
Q 1341 213 1159 525 
L 1159 0 
L 581 0 
L 581 4863 
L 1159 4863 
L 1159 2969 
z
" transform="scale(0.015625)"/>
      <path id="DejaVuSans-20" transform="scale(0.015625)"/>
      <path id="DejaVuSans-66" d="M 2375 4863 
L 2375 4384 
L 1825 4384 
Q 1516 4384 1395 4259 
Q 1275 4134 1275 3809 
L 1275 3500 
L 2222 3500 
L 2222 3053 
L 1275 3053 
L 1275 0 
L 697 0 
L 697 3053 
L 147 3053 
L 147 3500 
L 697 3500 
L 697 3744 
Q 697 4328 969 4595 
Q 1241 4863 1831 4863 
L 2375 4863 
z
" transform="scale(0.015625)"/>
      <path id="DejaVuSans-6c" d="M 603 4863 
L 1178 4863 
L 1178 0 
L 603 0 
L 603 4863 
z
" transform="scale(0.015625)"/>
      <path id="DejaVuSans-65" d="M 3597 1894 
L 3597 1613 
L 953 1613 
Q 991 1019 1311 708 
Q 1631 397 2203 397 
Q 2534 397 2845 478 
Q 3156 559 3463 722 
L 3463 178 
Q 3153 47 2828 -22 
Q 2503 -91 2169 -91 
Q 1331 -91 842 396 
Q 353 884 353 1716 
Q 353 2575 817 3079 
Q 1281 3584 2069 3584 
Q 2775 3584 3186 3129 
Q 3597 2675 3597 1894 
z
M 3022 2063 
Q 3016 2534 2758 2815 
Q 2500 3097 2075 3097 
Q 1594 3097 1305 2825 
Q 1016 2553 972 2059 
L 3022 2063 
z
" transform="scale(0.015625)"/>
      <path id="DejaVuSans-6d" d="M 3328 2828 
Q 3544 3216 3844 3400 
Q 4144 3584 4550 3584 
Q 5097 3584 5394 3201 
Q 5691 2819 5691 2113 
L 5691 0 
L 5113 0 
L 5113 2094 
Q 5113 2597 4934 2840 
Q 4756 3084 4391 3084 
Q 3944 3084 3684 2787 
Q 3425 2491 3425 1978 
L 3425 0 
L 2847 0 
L 2847 2094 
Q 2847 2600 2669 2842 
Q 2491 3084 2119 3084 
Q 1678 3084 1418 2786 
Q 1159 2488 1159 1978 
L 1159 0 
L 581 0 
L 581 3500 
L 1159 3500 
L 1159 2956 
Q 1356 3278 1631 3431 
Q 1906 3584 2284 3584 
Q 2666 3584 2933 3390 
Q 3200 3197 3328 2828 
z
" transform="scale(0.015625)"/>
      <path id="DejaVuSans-70" d="M 1159 525 
L 1159 -1331 
L 581 -1331 
L 581 3500 
L 1159 3500 
L 1159 2969 
Q 1341 3281 1617 3432 
Q 1894 3584 2278 3584 
Q 2916 3584 3314 3078 
Q 3713 2572 3713 1747 
Q 3713 922 3314 415 
Q 2916 -91 2278 -91 
Q 1894 -91 1617 61 
Q 1341 213 1159 525 
z
M 3116 1747 
Q 3116 2381 2855 2742 
Q 2594 3103 2138 3103 
Q 1681 3103 1420 2742 
Q 1159 2381 1159 1747 
Q 1159 1113 1420 752 
Q 1681 391 2138 391 
Q 2594 391 2855 752 
Q 3116 1113 3116 1747 
z
" transform="scale(0.015625)"/>
      <path id="DejaVuSans-61" d="M 2194 1759 
Q 1497 1759 1228 1600 
Q 959 1441 959 1056 
Q 959 750 1161 570 
Q 1363 391 1709 391 
Q 2188 391 2477 730 
Q 2766 1069 2766 1631 
L 2766 1759 
L 2194 1759 
z
M 3341 1997 
L 3341 0 
L 2766 0 
L 2766 531 
Q 2569 213 2275 61 
Q 1981 -91 1556 -91 
Q 1019 -91 701 211 
Q 384 513 384 1019 
Q 384 1609 779 1909 
Q 1175 2209 1959 2209 
L 2766 2209 
L 2766 2266 
Q 2766 2663 2505 2880 
Q 2244 3097 1772 3097 
Q 1472 3097 1187 3025 
Q 903 2953 641 2809 
L 641 3341 
Q 956 3463 1253 3523 
Q 1550 3584 1831 3584 
Q 2591 3584 2966 3190 
Q 3341 2797 3341 1997 
z
" transform="scale(0.015625)"/>
      <path id="DejaVuSans-28" d="M 1984 4856 
Q 1566 4138 1362 3434 
Q 1159 2731 1159 2009 
Q 1159 1288 1364 580 
Q 1569 -128 1984 -844 
L 1484 -844 
Q 1016 -109 783 600 
Q 550 1309 550 2009 
Q 550 2706 781 3412 
Q 1013 4119 1484 4856 
L 1984 4856 
z
" transform="scale(0.015625)"/>
      <path id="DejaVuSans-29" d="M 513 4856 
L 1013 4856 
Q 1481 4119 1714 3412 
Q 1947 2706 1947 2009 
Q 1947 1309 1714 600 
Q 1481 -109 1013 -844 
L 513 -844 
Q 928 -128 1133 580 
Q 1338 1288 1338 2009 
Q 1338 2731 1133 3434 
Q 928 4138 513 4856 
z
" transform="scale(0.015625)"/>
     </defs>
     <use xlink:href="#DejaVuSans-44"/>
     <use xlink:href="#DejaVuSans-69" x="77.001953"/>
     <use xlink:href="#DejaVuSans-73" x="104.785156"/>
     <use xlink:href="#DejaVuSans-74" x="156.884766"/>
     <use xlink:href="#DejaVuSans-72" x="196.09375"/>
     <use xlink:href="#DejaVuSans-69" x="237.207031"/>
     <use xlink:href="#DejaVuSans-62" x="264.990234"/>
     <use xlink:href="#DejaVuSans-75" x="328.466797"/>
     <use xlink:href="#DejaVuSans-74" x="391.845703"/>
     <use xlink:href="#DejaVuSans-69" x="431.054688"/>
     <use xlink:href="#DejaVuSans-6f" x="458.837891"/>
     <use xlink:href="#DejaVuSans-6e" x="520.019531"/>
     <use xlink:href="#DejaVuSans-20" x="583.398438"/>
     <use xlink:href="#DejaVuSans-6f" x="615.185547"/>
     <use xlink:href="#DejaVuSans-66" x="676.367188"/>
     <use xlink:href="#DejaVuSans-20" x="711.572266"/>
     <use xlink:href="#DejaVuSans-4f" x="743.359375"/>
     <use xlink:href="#DejaVuSans-69" x="822.070312"/>
     <use xlink:href="#DejaVuSans-6c" x="849.853516"/>
     <use xlink:href="#DejaVuSans-20" x="877.636719"/>
     <use xlink:href="#DejaVuSans-54" x="909.423828"/>
     <use xlink:href="#DejaVuSans-65" x="953.507812"/>
     <use xlink:href="#DejaVuSans-6d" x="1015.03125"/>
     <use xlink:href="#DejaVuSans-70" x="1112.443359"/>
     <use xlink:href="#DejaVuSans-65" x="1175.919922"/>
     <use xlink:href="#DejaVuSans-72" x="1237.443359"/>
     <use xlink:href="#DejaVuSans-61" x="1278.556641"/>
     <use xlink:href="#DejaVuSans-74" x="1339.835938"/>
     <use xlink:href="#DejaVuSans-75" x="1379.044922"/>
     <use xlink:href="#DejaVuSans-72" x="1442.423828"/>
     <use xlink:href="#DejaVuSans-65" x="1481.287109"/>
     <use xlink:href="#DejaVuSans-20" x="1542.810547"/>
     <use xlink:href="#DejaVuSans-28" x="1574.597656"/>
     <use xlink:href="#DejaVuSans-4f" x="1613.611328"/>
     <use xlink:href="#DejaVuSans-54" x="1692.322266"/>
     <use xlink:href="#DejaVuSans-29" x="1753.40625"/>
    </g>
   </g>
  </g>
 </g>
 <defs>
  <clipPath id="pe05ce792cc">
   <rect x="72" y="34.56" width="446.4" height="221.76"/>
  </clipPath>
 </defs>
</svg>
